<svg width="39" height="47" xmlns="http://www.w3.org/2000/svg" xmlns:xlink="http://www.w3.org/1999/xlink" xml:space="preserve" overflow="hidden"><defs><clipPath id="clip0"><rect x="570" y="357" width="39" height="47"/></clipPath><clipPath id="clip1"><rect x="570" y="357" width="39" height="47"/></clipPath><clipPath id="clip2"><rect x="571" y="358" width="38" height="46"/></clipPath><clipPath id="clip3"><rect x="571" y="358" width="38" height="46"/></clipPath></defs><g clip-path="url(#clip0)" transform="translate(-570 -357)"><g clip-path="url(#clip1)"><g clip-path="url(#clip2)"><g clip-path="url(#clip3)"><g><path d="M57.4164 5.83443 57.4164 3.43682 55.1895 3.43682 55.1895 5.83443 54.1058 5.83443 54.1058 0.0816523 55.2267 0.0816523 55.2267 2.49411 57.4535 2.49411 57.4535 0.0816523 58.5744 0.0816523 58.5744 5.83443ZM62.6125 5.83443 61.7217 5.83443 61.6401 5.55236C61.263 5.79473 60.8263 5.92831 60.3782 5.93835 59.5914 5.93835 59.2499 5.41875 59.2499 4.70614 59.2499 3.85993 59.6285 3.54074 60.5118 3.54074L61.551 3.54074 61.551 3.08052C61.551 2.6203 61.4174 2.45699 60.7271 2.45699 60.3256 2.46076 59.9254 2.50302 59.532 2.58318L59.3835 1.79635C59.8681 1.66877 60.3671 1.60391 60.8681 1.60335 62.2265 1.60335 62.6273 2.06358 62.6273 3.08794ZM61.551 4.26819 60.7493 4.26819C60.393 4.26819 60.2965 4.36469 60.2965 4.67645 60.2965 4.98821 60.393 5.09214 60.7345 5.09214 61.0201 5.08773 61.3003 5.01385 61.551 4.87687ZM64.8988 5.93835C64.3951 5.93033 63.8952 5.85034 63.4142 5.70082L63.5626 4.90656C63.9812 5.02114 64.4128 5.08102 64.8468 5.08471 65.3293 5.08471 65.3961 4.98079 65.3961 4.66903 65.3961 4.35726 65.3441 4.28304 64.6538 4.12715 63.5997 3.8822 63.4736 3.62239 63.4736 2.82072 63.4736 2.01904 63.8373 1.59593 65.0769 1.59593 65.514 1.59745 65.9497 1.64724 66.3759 1.74439L66.272 2.56834C65.8797 2.4989 65.4826 2.4592 65.0843 2.44957 64.6167 2.44957 64.535 2.55349 64.535 2.80587 64.535 3.05825 64.535 3.16217 65.1437 3.31063 66.3537 3.61497 66.465 3.77085 66.465 4.62449 66.465 5.47813 66.2052 5.93835 64.8988 5.93835ZM69.8573 5.8567 69.8573 2.96918C69.8573 2.74649 69.7608 2.63514 69.5084 2.63514 69.1143 2.67277 68.7311 2.78619 68.3801 2.96918L68.3801 5.83443 67.2964 5.83443 67.2964 0 68.3801 0.163305 68.3801 1.99677C68.8734 1.75438 69.412 1.61784 69.9612 1.59593 70.7035 1.59593 70.941 2.07842 70.941 2.82072L70.941 5.83443ZM71.8466 1.12086 71.8466 0.0816523 72.9304 0.0816523 72.9304 1.0986ZM71.8466 5.8567 71.8466 1.68501 72.9304 1.68501 72.9304 5.83443ZM73.7914 1.74439C73.7914 0.705179 74.4224 0.0964982 75.8921 0.0964982 76.4318 0.0959237 76.9699 0.158201 77.4955 0.282072L77.3693 1.20994C76.8913 1.12174 76.4073 1.0721 75.9218 1.06148 75.1795 1.06148 74.9049 1.31386 74.9049 1.92254L74.9049 4.08262C74.9049 4.68387 75.1498 4.94368 75.9218 4.94368 76.4073 4.93306 76.8913 4.88342 77.3693 4.79522L77.4955 5.72309C76.9699 5.84696 76.4318 5.90923 75.8921 5.90866 74.4075 5.90866 73.7914 5.3074 73.7914 4.26077ZM79.8931 5.93835C78.4085 5.93835 78.0151 5.15152 78.0151 4.3053L78.0151 3.2364C78.0151 2.38276 78.4159 1.60335 79.8931 1.60335 81.3703 1.60335 81.7711 2.39019 81.7711 3.2364L81.7711 4.28304C81.7785 5.13667 81.3777 5.93835 79.8931 5.93835ZM79.8931 2.50153C79.3141 2.50153 79.0914 2.74649 79.0914 3.24382L79.0914 4.35726C79.0914 4.82491 79.3141 5.09956 79.8931 5.09956 80.4721 5.09956 80.6948 4.8546 80.6948 4.35726L80.6948 3.19929C80.6948 2.73164 80.4721 2.48668 79.8931 2.48668ZM84.8219 2.56834C84.4263 2.73978 84.044 2.94077 83.6788 3.1696L83.6788 5.84185 82.595 5.84185 82.595 1.68501 83.5081 1.68501 83.5823 2.14523C83.9364 1.91675 84.3179 1.73464 84.718 1.60335ZM89.1495 4.45376C89.2653 5.15342 88.7925 5.81473 88.0932 5.93083 87.9707 5.95105 87.8468 5.95358 87.7243 5.93835 87.3376 5.93467 86.953 5.8949 86.5737 5.81958L86.5737 7.49717 85.49 7.66047 85.49 1.72212 86.3511 1.72212 86.455 2.071C86.8528 1.78554 87.3309 1.63234 87.8208 1.63305 88.6893 1.63305 89.1495 2.13038 89.1495 3.0731ZM86.5663 4.92141C86.881 4.98935 87.2017 5.02664 87.5239 5.03275 87.9173 5.03275 88.0658 4.8546 88.0658 4.47603L88.0658 2.99144C88.0658 2.64999 87.9321 2.46442 87.5313 2.46442 87.1757 2.47742 86.8358 2.61092 86.5663 2.84299ZM60.7048 14.5044 54.1058 14.5044 54.1058 10.5628 71.7798 10.5628 71.7798 14.5044 65.1734 14.5044 65.1734 34.1975 60.7196 34.1975Z" fill="#000000" fill-rule="nonzero" fill-opacity="1" transform="matrix(1 0 0 1.01048 571.232 358)"/><path d="M75.855 31.0056C77.6477 30.9966 79.4284 30.7214 81.1401 30.1891L81.8156 33.4552C79.778 34.1894 77.6276 34.5612 75.4616 34.5538 70.0354 34.5538 68.15 32.0374 68.15 27.8731L68.15 23.308C68.15 19.6559 69.7831 16.568 75.3206 16.568 80.8581 16.568 82.0977 19.797 82.0977 23.5233L82.0977 27.2348 72.4479 27.2348 72.4479 28.1255C72.485 30.1891 73.2273 31.0056 75.855 31.0056ZM72.485 23.7534 77.9854 23.7534 77.9854 22.8775C77.9854 21.2445 77.4881 20.1087 75.3577 20.1087 73.2273 20.1087 72.485 21.2445 72.485 22.8775ZM93.6701 20.5393C92.0756 21.2583 90.5398 22.0996 89.0753 23.0556L89.0753 34.1901 84.7477 34.1901 84.7477 16.9169 88.3998 16.9169 88.6819 18.832C90.09 17.8787 91.6176 17.115 93.2247 16.5606ZM104.24 20.5393C102.651 21.2589 101.12 22.1002 99.6604 23.0556L99.6604 34.1901 95.3328 34.1901 95.3328 16.9169 98.9849 16.9169 99.267 18.832C100.675 17.8787 102.203 17.115 103.81 16.5606ZM118.722 34.1975 115.174 34.1975 114.855 33.0247C113.325 34.0208 111.538 34.5519 109.711 34.5538 106.556 34.5538 105.205 32.3863 105.205 29.4097 105.205 25.8986 106.734 24.5477 110.245 24.5477L114.395 24.5477 114.395 22.7365C114.395 20.8213 113.86 20.1459 111.092 20.1459 109.482 20.164 107.878 20.343 106.304 20.6803L105.769 17.3771C107.704 16.8419 109.701 16.5673 111.708 16.5606 117.134 16.5606 118.737 18.4757 118.737 22.8033ZM114.395 27.6653 111.203 27.6653C109.785 27.6653 109.392 28.0587 109.392 29.3651 109.392 30.6716 109.785 31.1021 111.129 31.1021 112.275 31.0847 113.399 30.7783 114.395 30.2114ZM132.024 12.9753C131.207 12.7997 130.374 12.7052 129.538 12.6932 127.838 12.6932 127.585 13.4355 127.585 14.7494L127.585 16.9169 131.987 16.9169 131.742 20.3611 127.593 20.3611 127.593 34.1975 123.265 34.1975 123.265 20.3611 120.497 20.3611 120.497 16.9169 123.265 16.9169 123.265 14.5044C123.265 10.9191 124.935 9.14506 128.766 9.14506 130.019 9.14031 131.269 9.30762 132.477 9.6424ZM140.472 34.5538C134.533 34.5538 132.952 31.2877 132.952 27.7395L132.952 23.3748C132.952 19.8267 134.548 16.5606 140.472 16.5606 146.395 16.5606 147.991 19.8267 147.991 23.3748L147.991 27.7395C147.999 31.2877 146.395 34.5538 140.472 34.5538ZM140.472 20.2498C138.163 20.2498 137.28 21.2816 137.28 23.219L137.28 27.8657C137.28 29.8179 138.171 30.8349 140.472 30.8349 142.773 30.8349 143.664 29.8031 143.664 27.8657L143.664 23.2338C143.664 21.2816 142.78 20.2498 140.472 20.2498ZM159.133 20.5393C157.544 21.2589 156.012 22.1002 154.553 23.0556L154.553 34.1901 150.225 34.1901 150.225 16.9169 153.878 16.9169 154.16 18.832C155.568 17.8787 157.095 17.1149 158.702 16.5606ZM171.025 34.1975 171.025 22.1352C171.025 21.2148 170.631 20.7545 169.644 20.7545 168.058 20.9429 166.525 21.4478 165.138 22.2391L165.138 34.1975 160.811 34.1975 160.811 16.9169 164.114 16.9169 164.537 18.4015C166.694 17.3105 169.056 16.6834 171.47 16.5606 172.838 16.4318 174.142 17.1695 174.736 18.4089 176.895 17.3019 179.267 16.6716 181.691 16.5606 184.564 16.5606 185.596 18.5796 185.596 21.6676L185.596 34.1975 181.268 34.1975 181.268 22.1352C181.268 21.2148 180.875 20.7545 179.887 20.7545 178.298 20.9295 176.764 21.4352 175.382 22.2391L175.382 34.1975Z" fill="#000000" fill-rule="nonzero" fill-opacity="1" transform="matrix(1 0 0 1.01048 571.232 358)"/><path d="M27.0195 14.9943 27.0195 29.046 39.1931 22.0239 39.1931 7.95739 27.0195 14.9943Z" fill="#4040B2" fill-rule="nonzero" fill-opacity="1" transform="matrix(1 0 0 1.01048 571.232 358)"/><path d="M13.5097 7.95739 25.6834 14.9943 25.6834 29.046 13.5097 22.0164 13.5097 7.95739Z" fill="#5C4EE5" fill-rule="nonzero" fill-opacity="1" transform="matrix(1 0 0 1.01048 571.232 358)"/><path d="M0 0.111344 0 14.1704 12.1736 21.1999 12.1736 7.14087 0 0.111344ZM13.5097 37.6195 25.6834 44.649 25.6834 30.5899 13.5097 23.5604 13.5097 37.6195Z" fill="#5C4EE5" fill-rule="nonzero" fill-opacity="1" transform="matrix(1 0 0 1.01048 571.232 358)"/></g></g></g></g></g></svg>